<?xml version="1.0" encoding="UTF-8"?>
<!DOCTYPE svg PUBLIC "-//W3C//DTD SVG 1.1//EN" "http://www.w3.org/Graphics/SVG/1.1/DTD/svg11.dtd">
<!-- Creator: CorelDRAW 2018 (64-Bit Evaluation Version) -->
<svg xmlns="http://www.w3.org/2000/svg" xml:space="preserve" width="122px" height="24px" version="1.1" style="shape-rendering:geometricPrecision; text-rendering:geometricPrecision; image-rendering:optimizeQuality; fill-rule:evenodd; clip-rule:evenodd"
viewBox="0 0 122 24"
 xmlns:xlink="http://www.w3.org/1999/xlink">
 <defs>
  <style type="text/css">
   <![CDATA[
    .fil3 {fill:#00A2E3}
    .fil2 {fill:#91A4AB}
    .fil1 {fill:#00A2E3;fill-rule:nonzero}
    .fil0 {fill:#91A4AB;fill-rule:nonzero}
   ]]>
  </style>
 </defs>
 <g id="Layer_x0020_1">
  <metadata id="CorelCorpID_0Corel-Layer"/>
  <g id="_2916869399552">
   <g>
    <path class="fil0" d="M22.26 18.89c-0.14,0 -0.24,-0.04 -0.33,-0.13 -0.09,-0.08 -0.13,-0.19 -0.13,-0.32l0 -13.08c0,-0.13 0.04,-0.24 0.13,-0.32 0.09,-0.09 0.19,-0.13 0.33,-0.13l0.98 0c0.14,0 0.26,0.04 0.34,0.13 0.07,0.08 0.11,0.19 0.11,0.32l0 4.59c0.36,-0.44 0.79,-0.81 1.3,-1.08 0.52,-0.28 1.16,-0.41 1.95,-0.41 0.86,0 1.58,0.18 2.18,0.56 0.59,0.37 1.05,0.89 1.36,1.55 0.3,0.66 0.46,1.44 0.46,2.32l0 5.55c0,0.13 -0.04,0.24 -0.12,0.32 -0.08,0.09 -0.19,0.13 -0.33,0.13l-0.99 0c-0.13,0 -0.24,-0.04 -0.32,-0.13 -0.09,-0.08 -0.13,-0.19 -0.13,-0.32l0 -5.46c0,-0.91 -0.22,-1.63 -0.67,-2.15 -0.45,-0.52 -1.1,-0.78 -1.97,-0.78 -0.81,0 -1.47,0.26 -1.97,0.78 -0.5,0.52 -0.75,1.24 -0.75,2.15l0 5.46c0,0.13 -0.04,0.24 -0.11,0.32 -0.08,0.09 -0.2,0.13 -0.34,0.13l-0.98 0zm14.37 0.2c-0.66,0 -1.25,-0.13 -1.79,-0.4 -0.54,-0.26 -0.97,-0.61 -1.3,-1.06 -0.33,-0.44 -0.49,-0.95 -0.49,-1.51 0,-0.91 0.36,-1.63 1.1,-2.17 0.73,-0.54 1.69,-0.89 2.87,-1.06l2.94 -0.42 0 -0.57c0,-0.63 -0.18,-1.12 -0.54,-1.48 -0.37,-0.35 -0.95,-0.53 -1.77,-0.53 -0.57,0 -1.05,0.12 -1.41,0.36 -0.37,0.23 -0.63,0.54 -0.77,0.9 -0.08,0.2 -0.22,0.3 -0.42,0.3l-0.88 0c-0.15,0 -0.25,-0.04 -0.33,-0.13 -0.07,-0.09 -0.1,-0.19 -0.1,-0.3 0,-0.2 0.07,-0.45 0.22,-0.73 0.15,-0.29 0.38,-0.58 0.7,-0.85 0.32,-0.28 0.72,-0.51 1.21,-0.7 0.49,-0.19 1.09,-0.28 1.8,-0.28 0.79,0 1.45,0.1 1.99,0.3 0.54,0.2 0.96,0.48 1.27,0.82 0.31,0.34 0.53,0.73 0.67,1.16 0.14,0.43 0.21,0.87 0.21,1.32l0 6.38c0,0.13 -0.04,0.24 -0.13,0.32 -0.09,0.09 -0.19,0.13 -0.32,0.13l-0.91 0c-0.15,0 -0.26,-0.04 -0.34,-0.13 -0.07,-0.08 -0.11,-0.19 -0.11,-0.32l0 -0.85c-0.17,0.24 -0.4,0.47 -0.69,0.7 -0.29,0.23 -0.65,0.42 -1.09,0.57 -0.43,0.15 -0.96,0.23 -1.59,0.23zm0.41 -1.48c0.54,0 1.03,-0.11 1.48,-0.34 0.45,-0.23 0.8,-0.59 1.05,-1.08 0.26,-0.48 0.39,-1.09 0.39,-1.83l0 -0.55 -2.29 0.34c-0.93,0.13 -1.63,0.35 -2.1,0.66 -0.48,0.3 -0.71,0.69 -0.71,1.17 0,0.36 0.11,0.67 0.32,0.91 0.22,0.25 0.49,0.43 0.83,0.54 0.33,0.12 0.68,0.18 1.03,0.18zm11.15 1.48c-0.74,0 -1.37,-0.09 -1.89,-0.28 -0.53,-0.18 -0.95,-0.4 -1.28,-0.67 -0.33,-0.26 -0.58,-0.52 -0.74,-0.78 -0.17,-0.27 -0.25,-0.48 -0.27,-0.64 -0.01,-0.14 0.04,-0.25 0.14,-0.33 0.11,-0.08 0.21,-0.12 0.32,-0.12l0.88 0c0.07,0 0.12,0.01 0.17,0.03 0.05,0.02 0.11,0.08 0.19,0.17 0.17,0.18 0.36,0.37 0.57,0.55 0.21,0.18 0.47,0.34 0.78,0.45 0.3,0.12 0.69,0.18 1.15,0.18 0.67,0 1.22,-0.13 1.65,-0.38 0.43,-0.26 0.65,-0.64 0.65,-1.14 0,-0.32 -0.09,-0.59 -0.26,-0.78 -0.18,-0.2 -0.5,-0.38 -0.95,-0.53 -0.45,-0.16 -1.07,-0.33 -1.86,-0.5 -0.79,-0.18 -1.41,-0.41 -1.87,-0.68 -0.46,-0.27 -0.79,-0.59 -0.99,-0.96 -0.19,-0.38 -0.29,-0.8 -0.29,-1.27 0,-0.49 0.14,-0.96 0.43,-1.41 0.29,-0.45 0.72,-0.82 1.27,-1.11 0.56,-0.29 1.26,-0.43 2.1,-0.43 0.68,0 1.27,0.08 1.75,0.25 0.49,0.17 0.89,0.38 1.2,0.64 0.32,0.26 0.55,0.51 0.71,0.76 0.16,0.25 0.25,0.46 0.26,0.63 0.01,0.13 -0.03,0.24 -0.12,0.32 -0.09,0.09 -0.2,0.13 -0.32,0.13l-0.82 0c-0.09,0 -0.17,-0.02 -0.23,-0.06 -0.06,-0.04 -0.11,-0.08 -0.17,-0.13 -0.13,-0.18 -0.28,-0.35 -0.46,-0.52 -0.18,-0.17 -0.41,-0.31 -0.69,-0.42 -0.28,-0.11 -0.65,-0.17 -1.11,-0.17 -0.66,0 -1.15,0.14 -1.48,0.42 -0.33,0.27 -0.49,0.62 -0.49,1.04 0,0.25 0.07,0.47 0.22,0.67 0.14,0.2 0.42,0.37 0.82,0.53 0.41,0.16 1.01,0.33 1.82,0.51 0.86,0.17 1.54,0.4 2.04,0.69 0.5,0.29 0.86,0.63 1.07,1.01 0.21,0.38 0.31,0.82 0.31,1.32 0,0.55 -0.16,1.05 -0.47,1.51 -0.32,0.46 -0.79,0.82 -1.42,1.1 -0.63,0.26 -1.4,0.4 -2.32,0.4zm6.97 -0.2c-0.13,0 -0.24,-0.04 -0.33,-0.13 -0.08,-0.08 -0.13,-0.19 -0.13,-0.32l0 -13.08c0,-0.13 0.05,-0.24 0.13,-0.32 0.09,-0.09 0.2,-0.13 0.33,-0.13l0.98 0c0.15,0 0.26,0.04 0.34,0.13 0.08,0.08 0.12,0.19 0.12,0.32l0 4.59c0.35,-0.44 0.78,-0.81 1.29,-1.08 0.52,-0.28 1.17,-0.41 1.95,-0.41 0.86,0 1.58,0.18 2.18,0.56 0.6,0.37 1.05,0.89 1.36,1.55 0.31,0.66 0.46,1.44 0.46,2.32l0 5.55c0,0.13 -0.04,0.24 -0.12,0.32 -0.08,0.09 -0.19,0.13 -0.33,0.13l-0.99 0c-0.13,0 -0.24,-0.04 -0.32,-0.13 -0.09,-0.08 -0.13,-0.19 -0.13,-0.32l0 -5.46c0,-0.91 -0.22,-1.63 -0.67,-2.15 -0.44,-0.52 -1.1,-0.78 -1.97,-0.78 -0.81,0 -1.47,0.26 -1.97,0.78 -0.5,0.52 -0.74,1.24 -0.74,2.15l0 5.46c0,0.13 -0.04,0.24 -0.12,0.32 -0.08,0.09 -0.19,0.13 -0.34,0.13l-0.98 0z"/>
    <path class="fil1" d="M72.07 19.09c-1.22,0 -2.25,-0.22 -3.1,-0.64 -0.85,-0.43 -1.49,-1.04 -1.94,-1.83 -0.44,-0.8 -0.69,-1.75 -0.75,-2.87 -0.01,-0.54 -0.02,-1.11 -0.02,-1.73 0,-0.62 0.01,-1.21 0.02,-1.77 0.06,-1.11 0.31,-2.06 0.76,-2.86 0.45,-0.8 1.1,-1.41 1.95,-1.84 0.85,-0.43 1.87,-0.64 3.08,-0.64 0.89,0 1.7,0.12 2.4,0.36 0.71,0.23 1.32,0.56 1.82,0.97 0.49,0.41 0.88,0.9 1.16,1.45 0.27,0.55 0.42,1.15 0.43,1.79 0.01,0.12 -0.02,0.22 -0.11,0.29 -0.08,0.08 -0.18,0.12 -0.3,0.12l-1.87 0c-0.15,0 -0.27,-0.03 -0.36,-0.11 -0.09,-0.07 -0.16,-0.19 -0.19,-0.36 -0.21,-0.87 -0.58,-1.46 -1.09,-1.77 -0.51,-0.32 -1.15,-0.47 -1.91,-0.47 -0.88,0 -1.58,0.24 -2.1,0.73 -0.53,0.5 -0.81,1.31 -0.85,2.44 -0.04,1.07 -0.04,2.17 0,3.3 0.04,1.13 0.32,1.94 0.85,2.43 0.52,0.5 1.22,0.74 2.1,0.74 0.76,0 1.4,-0.16 1.92,-0.48 0.52,-0.32 0.88,-0.91 1.08,-1.76 0.03,-0.18 0.1,-0.31 0.19,-0.38 0.09,-0.06 0.21,-0.09 0.36,-0.09l1.87 0c0.12,0 0.22,0.04 0.3,0.11 0.09,0.08 0.12,0.18 0.11,0.3 -0.01,0.64 -0.16,1.24 -0.43,1.79 -0.28,0.55 -0.67,1.04 -1.16,1.45 -0.5,0.41 -1.11,0.74 -1.82,0.97 -0.7,0.24 -1.51,0.36 -2.4,0.36zm8.65 -0.2c-0.15,0 -0.27,-0.04 -0.36,-0.14 -0.09,-0.09 -0.13,-0.2 -0.13,-0.33l0 -12.82c0,-0.14 0.04,-0.26 0.13,-0.35 0.09,-0.1 0.21,-0.14 0.36,-0.14l1.55 0c0.19,0 0.32,0.05 0.42,0.14 0.09,0.1 0.15,0.18 0.17,0.23l3.8 7.09 3.84 -7.09c0.03,-0.05 0.09,-0.13 0.18,-0.23 0.09,-0.09 0.23,-0.14 0.41,-0.14l1.54 0c0.14,0 0.26,0.04 0.35,0.14 0.1,0.09 0.14,0.21 0.14,0.35l0 12.82c0,0.13 -0.04,0.24 -0.14,0.33 -0.09,0.1 -0.21,0.14 -0.35,0.14l-1.65 0c-0.15,0 -0.26,-0.04 -0.35,-0.14 -0.08,-0.09 -0.13,-0.2 -0.13,-0.33l0 -8.53 -2.75 5.26c-0.07,0.12 -0.15,0.22 -0.26,0.3 -0.11,0.09 -0.24,0.13 -0.41,0.13l-0.81 0c-0.18,0 -0.33,-0.04 -0.42,-0.13 -0.1,-0.08 -0.18,-0.18 -0.25,-0.3l-2.76 -5.26 0 8.53c0,0.13 -0.04,0.24 -0.13,0.33 -0.1,0.1 -0.21,0.14 -0.34,0.14l-1.65 0zm20.26 0.2c-1.22,0 -2.24,-0.18 -3.06,-0.54 -0.82,-0.36 -1.45,-0.84 -1.88,-1.42 -0.42,-0.58 -0.65,-1.2 -0.67,-1.84 0,-0.12 0.04,-0.22 0.12,-0.3 0.07,-0.08 0.17,-0.12 0.29,-0.12l1.75 0c0.17,0 0.3,0.04 0.39,0.11 0.08,0.08 0.16,0.16 0.22,0.27 0.08,0.25 0.23,0.49 0.45,0.74 0.23,0.24 0.53,0.44 0.92,0.6 0.39,0.15 0.88,0.23 1.47,0.23 0.94,0 1.65,-0.15 2.12,-0.47 0.46,-0.31 0.69,-0.74 0.69,-1.28 0,-0.38 -0.12,-0.69 -0.37,-0.91 -0.25,-0.23 -0.63,-0.44 -1.15,-0.63 -0.52,-0.2 -1.21,-0.39 -2.06,-0.61 -0.98,-0.23 -1.81,-0.52 -2.47,-0.85 -0.66,-0.34 -1.16,-0.76 -1.5,-1.27 -0.33,-0.51 -0.5,-1.16 -0.5,-1.95 0,-0.76 0.21,-1.44 0.62,-2.03 0.41,-0.59 1.01,-1.06 1.77,-1.4 0.77,-0.34 1.69,-0.51 2.75,-0.51 0.85,0 1.61,0.12 2.26,0.34 0.66,0.24 1.2,0.54 1.64,0.91 0.43,0.38 0.76,0.78 0.99,1.2 0.23,0.43 0.35,0.85 0.37,1.25 0,0.11 -0.04,0.2 -0.11,0.29 -0.07,0.08 -0.18,0.13 -0.31,0.13l-1.83 0c-0.1,0 -0.21,-0.03 -0.31,-0.08 -0.11,-0.06 -0.19,-0.15 -0.26,-0.3 -0.08,-0.4 -0.33,-0.75 -0.77,-1.04 -0.43,-0.29 -0.99,-0.43 -1.67,-0.43 -0.71,0 -1.28,0.13 -1.71,0.39 -0.44,0.26 -0.65,0.67 -0.65,1.22 0,0.37 0.11,0.67 0.32,0.92 0.22,0.24 0.57,0.45 1.04,0.64 0.48,0.18 1.12,0.38 1.91,0.59 1.11,0.25 2.02,0.53 2.73,0.86 0.71,0.33 1.23,0.75 1.56,1.25 0.33,0.51 0.49,1.15 0.49,1.92 0,0.87 -0.23,1.61 -0.7,2.22 -0.46,0.61 -1.12,1.08 -1.96,1.41 -0.84,0.32 -1.82,0.49 -2.93,0.49z"/>
   </g>
   <g>
    <path class="fil2" d="M12.16 10.9l1.56 -1.55c0.24,-0.24 0.4,-0.29 0.73,-0.29l2.37 0 0.64 0c0.26,0 0.51,0.21 0.51,0.5l0 0.67 0 0.25 0 0.39c0,0.26 -0.22,0.51 -0.51,0.51l-0.92 0 -4.23 0c-0.42,0 -0.39,-0.24 -0.15,-0.48z"/>
    <path class="fil3" d="M1.81 12.47l9.37 9.37c0.23,0.22 0.57,0.36 0.89,0.36l2.7 0c0.42,0 0.41,-0.3 0.16,-0.55l-4.57 -4.54c-0.37,-0.37 -0.27,-0.56 0.03,-0.86l0.79 -0.8c0.19,-0.18 0.44,-0.27 0.68,-0.27l4.68 0 0.92 0c0.29,0 0.51,-0.25 0.51,-0.51l0 -0.39 0 -0.26 0 -0.66c0,-0.29 -0.25,-0.5 -0.51,-0.5l-0.64 0 -6.03 0c-0.36,0 -0.67,0.09 -0.96,0.38l-1.23 1.22c-0.31,0.31 -0.48,0.41 -0.92,-0.03l-1.93 -1.91c-0.36,-0.35 -0.35,-0.7 -0.02,-1.03 3.06,-3.05 6.14,-6.1 9.2,-9.15 0.25,-0.25 0.26,-0.55 -0.16,-0.55l-2.7 0c-0.32,0 -0.66,0.14 -0.89,0.37l-9.34 9.34c-0.36,0.36 -0.33,0.67 -0.03,0.97z"/>
   </g>
   <path class="fil0" d="M112.64 13.34l-3.1 0 0 2.02c0.14,-0.19 0.34,-0.35 0.6,-0.47 0.27,-0.12 0.55,-0.18 0.86,-0.18 0.49,0 0.88,0.1 1.19,0.31 0.31,0.2 0.53,0.46 0.66,0.78 0.13,0.32 0.2,0.66 0.2,1.02 0,0.43 -0.08,0.81 -0.24,1.14 -0.16,0.34 -0.4,0.61 -0.73,0.8 -0.33,0.2 -0.73,0.29 -1.21,0.29 -0.62,0 -1.12,-0.16 -1.51,-0.47 -0.38,-0.32 -0.61,-0.75 -0.7,-1.28l0.79 0c0.08,0.34 0.24,0.6 0.49,0.79 0.24,0.19 0.56,0.28 0.94,0.28 0.46,0 0.81,-0.14 1.05,-0.42 0.23,-0.28 0.35,-0.65 0.35,-1.11 0,-0.46 -0.12,-0.81 -0.35,-1.06 -0.24,-0.25 -0.59,-0.38 -1.05,-0.38 -0.31,0 -0.58,0.08 -0.81,0.23 -0.24,0.15 -0.41,0.35 -0.51,0.61l-0.76 0 0 -3.61 3.84 0 0 0.71zm1.87 5.75c-0.16,0 -0.28,-0.06 -0.39,-0.16 -0.11,-0.11 -0.16,-0.24 -0.16,-0.39 0,-0.15 0.05,-0.28 0.16,-0.39 0.11,-0.1 0.23,-0.16 0.39,-0.16 0.15,0 0.27,0.06 0.37,0.16 0.11,0.11 0.16,0.24 0.16,0.39 0,0.15 -0.05,0.28 -0.16,0.39 -0.1,0.1 -0.22,0.16 -0.37,0.16zm1.47 -3.32c0,-1.01 0.16,-1.8 0.49,-2.37 0.33,-0.57 0.91,-0.86 1.73,-0.86 0.82,0 1.4,0.29 1.73,0.86 0.33,0.57 0.49,1.36 0.49,2.37 0,1.03 -0.16,1.84 -0.49,2.41 -0.33,0.57 -0.91,0.85 -1.73,0.85 -0.82,0 -1.4,-0.28 -1.73,-0.85 -0.33,-0.57 -0.49,-1.38 -0.49,-2.41zm3.65 0c0,-0.51 -0.03,-0.95 -0.1,-1.3 -0.07,-0.36 -0.21,-0.65 -0.42,-0.86 -0.21,-0.22 -0.51,-0.33 -0.91,-0.33 -0.4,0 -0.7,0.11 -0.91,0.33 -0.21,0.21 -0.35,0.5 -0.42,0.86 -0.06,0.35 -0.1,0.79 -0.1,1.3 0,0.53 0.04,0.98 0.1,1.34 0.07,0.36 0.21,0.65 0.42,0.86 0.21,0.22 0.51,0.33 0.91,0.33 0.4,0 0.7,-0.11 0.91,-0.33 0.21,-0.21 0.35,-0.5 0.42,-0.86 0.07,-0.36 0.1,-0.81 0.1,-1.34z"/>
  </g>
 </g>
</svg>
